<svg width="20" height="14" viewBox="0 0 20 14" fill="none" xmlns="http://www.w3.org/2000/svg">
<path d="M10.0285 5.31908C10.2118 5.36448 10.3916 5.25337 10.3309 5.13515C9.9138 4.32365 8.40376 4.02093 7.00001 4.74089C6.26162 5.11964 5.98415 5.20012 5.97715 5.20215C6.46393 5.50946 7.02005 6.54068 8.23371 6.65472C9.57065 6.80777 10.7539 5.97725 9.78582 5.59721C9.14915 5.3473 8.39955 5.20212 7.59604 5.20212C8.43841 5.08223 9.27935 5.13364 10.0285 5.31908Z" fill="#E8620F"/>
<path d="M16.0824 4.74083C13.6593 3.49804 12.1139 5.45793 13.0745 5.26365C13.7567 5.12567 14.5025 5.09562 15.2507 5.20209C13.9831 5.20209 12.8147 5.56887 12.0356 6.16589C12.0996 5.22767 12.1964 4.64039 12.3086 4.20353C12.9561 4.18948 13.8191 3.85933 14.293 3.28164C15.11 2.3584 14.7311 1.41178 14.6092 0.814453C13.9708 1.20699 11.182 0.747041 10.0764 1.94322C9.5881 2.47162 9.73003 3.11462 10.2438 3.58516C10.4064 3.73412 10.7952 3.66264 10.8063 3.48187C10.8546 2.69549 11.4744 2.10135 12.63 1.77228C12.1114 2.19648 11.771 2.67142 11.5951 3.16229C11.3217 3.92697 11.0361 4.42858 10.9313 6.86582C10.9206 7.11299 11.2378 7.31758 11.6293 7.31448C11.9128 7.31223 12.1556 7.19865 12.2647 7.03341C12.4305 6.7821 12.7003 6.522 13.1395 6.2837C13.5568 6.57495 14.1918 6.72992 14.8489 6.65469C16.0574 6.54114 16.6213 5.50767 17.1054 5.20206C17.0983 5.20008 16.8208 5.11961 16.0824 4.74083Z" fill="#E8620F"/>
<path d="M19.6445 7.7776C18.887 7.45308 18.0625 7.68433 17.6839 7.82237L12.9324 10.0182L10.1503 10.0186L9.45473 9.57942H12.0098C12.7782 9.57942 13.6388 9.26339 13.6388 8.7009C13.6388 8.10371 12.7782 7.82237 12.0098 7.82237H11.0523C10.341 7.82237 9.50981 7.86242 8.92374 7.66432C8.36693 7.48542 7.72573 7.38361 7.04129 7.38361C5.89197 7.38361 4.86332 7.67292 4.15845 8.12916L0.412842 10.4574L4.58602 13.0924L5.97708 11.7749H12.5505C13.2516 11.7749 13.9283 11.6125 14.4524 11.3185L19.6921 8.37954C19.9834 8.21617 19.9669 7.91575 19.6445 7.7776Z" fill="#E8620F"/>
</svg>
