<svg width="17" height="11" viewBox="0 0 17 11" fill="none" xmlns="http://www.w3.org/2000/svg">
<path d="M9.0359 9.18405H9.97931V10.9228H9.0359V9.18405Z" fill="#E8620F"/>
<path d="M7.14907 9.18405H8.09248V10.9228H7.14907V9.18405Z" fill="#E8620F"/>
<path d="M11.7403 0.0664062H5.38803C5.12752 0.0664062 4.91633 0.208811 4.91633 0.384463V10.9228H6.20566V8.86599C6.20566 8.69034 6.41686 8.54793 6.67736 8.54793H10.451C10.7115 8.54793 10.9227 8.69034 10.9227 8.86599V10.9228H12.2121V0.384463C12.2121 0.208811 12.0009 0.0664062 11.7403 0.0664062ZM7.14907 7.59376C7.14907 7.76941 6.93787 7.91182 6.67736 7.91182C6.41686 7.91182 6.20566 7.76941 6.20566 7.59376V6.95765C6.20566 6.78199 6.41686 6.63959 6.67736 6.63959C6.93787 6.63959 7.14907 6.78199 7.14907 6.95765V7.59376ZM7.14907 5.68542C7.14907 5.86107 6.93787 6.00347 6.67736 6.00347C6.41686 6.00347 6.20566 5.86107 6.20566 5.68542V5.0493C6.20566 4.87365 6.41686 4.73125 6.67736 4.73125C6.93787 4.73125 7.14907 4.87365 7.14907 5.0493V5.68542ZM9.0359 7.59376C9.0359 7.76941 8.8247 7.91182 8.56419 7.91182C8.30368 7.91182 8.09248 7.76941 8.09248 7.59376V6.95765C8.09248 6.78199 8.30368 6.63959 8.56419 6.63959C8.8247 6.63959 9.0359 6.78199 9.0359 6.95765V7.59376ZM9.0359 5.68542C9.0359 5.86107 8.8247 6.00347 8.56419 6.00347C8.30368 6.00347 8.09248 5.86107 8.09248 5.68542V5.0493C8.09248 4.87365 8.30368 4.73125 8.56419 4.73125C8.8247 4.73125 9.0359 4.87365 9.0359 5.0493V5.68542ZM10.9227 7.59376C10.9227 7.76941 10.7115 7.91182 10.451 7.91182C10.1905 7.91182 9.97931 7.76941 9.97931 7.59376V6.95765C9.97931 6.78199 10.1905 6.63959 10.451 6.63959C10.7115 6.63959 10.9227 6.78199 10.9227 6.95765V7.59376ZM10.9227 5.68542C10.9227 5.86107 10.7115 6.00347 10.451 6.00347C10.1905 6.00347 9.97931 5.86107 9.97931 5.68542V5.0493C9.97931 4.87365 10.1905 4.73125 10.451 4.73125C10.7115 4.73125 10.9227 4.87365 10.9227 5.0493V5.68542ZM7.14907 3.77707C7.14907 3.95273 6.93787 4.09513 6.67736 4.09513C6.41686 4.09513 6.20566 3.95273 6.20566 3.77707V3.14096C6.20566 2.96531 6.41686 2.8229 6.67736 2.8229C6.93787 2.8229 7.14907 2.96531 7.14907 3.14096V3.77707ZM9.0359 3.77707C9.0359 3.95273 8.8247 4.09513 8.56419 4.09513C8.30368 4.09513 8.09248 3.95273 8.09248 3.77707V3.14096C8.09248 2.96531 8.30368 2.8229 8.56419 2.8229C8.8247 2.8229 9.0359 2.96531 9.0359 3.14096V3.77707ZM10.9227 3.77707C10.9227 3.95273 10.7115 4.09513 10.451 4.09513C10.1905 4.09513 9.97931 3.95273 9.97931 3.77707V3.14096C9.97931 2.96531 10.1905 2.8229 10.451 2.8229C10.7115 2.8229 10.9227 2.96531 10.9227 3.14096V3.77707ZM7.14907 1.86873C7.14907 2.04438 6.93787 2.18679 6.67736 2.18679C6.41686 2.18679 6.20566 2.04438 6.20566 1.86873V1.23262C6.20566 1.05696 6.41686 0.914559 6.67736 0.914559C6.93787 0.914559 7.14907 1.05696 7.14907 1.23262V1.86873ZM9.0359 1.86873C9.0359 2.04438 8.8247 2.18679 8.56419 2.18679C8.30368 2.18679 8.09248 2.04438 8.09248 1.86873V1.23262C8.09248 1.05696 8.30368 0.914559 8.56419 0.914559C8.8247 0.914559 9.0359 1.05696 9.0359 1.23262V1.86873ZM10.9227 1.86873C10.9227 2.04438 10.7115 2.18679 10.451 2.18679C10.1905 2.18679 9.97931 2.04438 9.97931 1.86873V1.23262C9.97931 1.05696 10.1905 0.914559 10.451 0.914559C10.7115 0.914559 10.9227 1.05696 10.9227 1.23262V1.86873Z" fill="#E8620F"/>
<path d="M16.1429 4.30717H13.1555V10.9228H16.1429C16.4034 10.9228 16.6146 10.7804 16.6146 10.6047V4.62523C16.6146 4.44957 16.4034 4.30717 16.1429 4.30717ZM15.3568 8.44191C15.3568 8.61757 15.1456 8.75997 14.8851 8.75997C14.6245 8.75997 14.4134 8.61757 14.4134 8.44191V7.8058C14.4134 7.63015 14.6245 7.48774 14.8851 7.48774C15.1456 7.48774 15.3568 7.63015 15.3568 7.8058V8.44191ZM15.3568 6.53357C15.3568 6.70922 15.1456 6.85163 14.8851 6.85163C14.6245 6.85163 14.4134 6.70922 14.4134 6.53357V5.89746C14.4134 5.7218 14.6245 5.5794 14.8851 5.5794C15.1456 5.5794 15.3568 5.7218 15.3568 5.89746V6.53357Z" fill="#E8620F"/>
<path d="M0.985439 4.30717C0.724932 4.30717 0.513733 4.44957 0.513733 4.62523V10.6047C0.513733 10.7804 0.724932 10.9228 0.985439 10.9228H3.97291V4.30717H0.985439ZM2.71503 8.44191C2.71503 8.61757 2.50383 8.75997 2.24332 8.75997C1.98282 8.75997 1.77162 8.61757 1.77162 8.44191V7.8058C1.77162 7.63015 1.98282 7.48774 2.24332 7.48774C2.50383 7.48774 2.71503 7.63015 2.71503 7.8058V8.44191ZM2.71503 6.53357C2.71503 6.70922 2.50383 6.85163 2.24332 6.85163C1.98282 6.85163 1.77162 6.70922 1.77162 6.53357V5.89746C1.77162 5.7218 1.98282 5.5794 2.24332 5.5794C2.50383 5.5794 2.71503 5.7218 2.71503 5.89746V6.53357Z" fill="#E8620F"/>
</svg>
